<mxfile host="app.diagrams.net" agent="Mozilla/5.0 (Windows NT 10.0; Win64; x64) AppleWebKit/537.36 (KHTML, like Gecko) Chrome/140.0.0.0 Safari/537.36 Edg/140.0.0.0" version="28.2.3">
  <diagram name="Página-1" id="aqmHKyziPdZkS7y_nGp2">
    <mxGraphModel dx="1418" dy="786" grid="1" gridSize="10" guides="1" tooltips="1" connect="1" arrows="1" fold="1" page="1" pageScale="1" pageWidth="827" pageHeight="1169" math="0" shadow="0">
      <root>
        <mxCell id="0" />
        <mxCell id="1" parent="0" />
        <mxCell id="bgs5XqCMGafAy966ZHqr-1" value="Inicio" style="ellipse;whiteSpace=wrap;html=1;fillColor=#e51400;fontColor=#ffffff;strokeColor=#B20000;" vertex="1" parent="1">
          <mxGeometry x="340" y="60" width="120" height="80" as="geometry" />
        </mxCell>
        <mxCell id="bgs5XqCMGafAy966ZHqr-2" value="" style="endArrow=classic;html=1;rounded=0;exitX=0.5;exitY=1;exitDx=0;exitDy=0;" edge="1" parent="1" source="bgs5XqCMGafAy966ZHqr-1" target="bgs5XqCMGafAy966ZHqr-3">
          <mxGeometry width="50" height="50" relative="1" as="geometry">
            <mxPoint x="400" y="160" as="sourcePoint" />
            <mxPoint x="400" y="250" as="targetPoint" />
            <Array as="points" />
          </mxGeometry>
        </mxCell>
        <mxCell id="bgs5XqCMGafAy966ZHqr-3" value="ler p1, p2 ,p3, p4" style="shape=parallelogram;perimeter=parallelogramPerimeter;whiteSpace=wrap;html=1;fixedSize=1;fillColor=#e3c800;fontColor=#000000;strokeColor=#B09500;" vertex="1" parent="1">
          <mxGeometry x="340" y="250" width="120" height="60" as="geometry" />
        </mxCell>
        <mxCell id="bgs5XqCMGafAy966ZHqr-10" value="" style="edgeStyle=orthogonalEdgeStyle;rounded=0;orthogonalLoop=1;jettySize=auto;html=1;" edge="1" parent="1" source="bgs5XqCMGafAy966ZHqr-4" target="bgs5XqCMGafAy966ZHqr-7">
          <mxGeometry relative="1" as="geometry" />
        </mxCell>
        <mxCell id="bgs5XqCMGafAy966ZHqr-4" value="Média =p1+p2+p3+p4" style="shape=parallelogram;perimeter=parallelogramPerimeter;whiteSpace=wrap;html=1;fixedSize=1;fillColor=#e3c800;fontColor=#000000;strokeColor=#B09500;size=-14;" vertex="1" parent="1">
          <mxGeometry x="354" y="420" width="120" height="60" as="geometry" />
        </mxCell>
        <mxCell id="bgs5XqCMGafAy966ZHqr-5" value="" style="endArrow=classic;html=1;rounded=0;entryX=0.383;entryY=0.083;entryDx=0;entryDy=0;entryPerimeter=0;" edge="1" parent="1" source="bgs5XqCMGafAy966ZHqr-3" target="bgs5XqCMGafAy966ZHqr-4">
          <mxGeometry width="50" height="50" relative="1" as="geometry">
            <mxPoint x="410" y="390" as="sourcePoint" />
            <mxPoint x="460" y="340" as="targetPoint" />
          </mxGeometry>
        </mxCell>
        <mxCell id="bgs5XqCMGafAy966ZHqr-7" value="escrever média" style="shape=parallelogram;perimeter=parallelogramPerimeter;whiteSpace=wrap;html=1;fixedSize=1;fillColor=#e3c800;fontColor=#000000;strokeColor=#B09500;" vertex="1" parent="1">
          <mxGeometry x="354" y="525" width="120" height="60" as="geometry" />
        </mxCell>
        <mxCell id="bgs5XqCMGafAy966ZHqr-8" value="" style="endArrow=classic;html=1;rounded=0;" edge="1" parent="1" source="bgs5XqCMGafAy966ZHqr-4" target="bgs5XqCMGafAy966ZHqr-7">
          <mxGeometry width="50" height="50" relative="1" as="geometry">
            <mxPoint x="399.5" y="480" as="sourcePoint" />
            <mxPoint x="399.5" y="595" as="targetPoint" />
          </mxGeometry>
        </mxCell>
        <mxCell id="bgs5XqCMGafAy966ZHqr-9" value="Fim" style="ellipse;whiteSpace=wrap;html=1;fillColor=#e51400;fontColor=#ffffff;strokeColor=#B20000;" vertex="1" parent="1">
          <mxGeometry x="354" y="650" width="120" height="80" as="geometry" />
        </mxCell>
        <mxCell id="bgs5XqCMGafAy966ZHqr-12" value="" style="endArrow=classic;html=1;rounded=0;" edge="1" parent="1" source="bgs5XqCMGafAy966ZHqr-7" target="bgs5XqCMGafAy966ZHqr-9">
          <mxGeometry width="50" height="50" relative="1" as="geometry">
            <mxPoint x="450" y="490" as="sourcePoint" />
            <mxPoint x="450" y="535" as="targetPoint" />
          </mxGeometry>
        </mxCell>
      </root>
    </mxGraphModel>
  </diagram>
</mxfile>
